<svg xmlns="http://www.w3.org/2000/svg" viewBox="0 0 512 512" width="512" height="512">
  <rect width="512" height="512" fill="#0f172a" rx="64"/>
  <g fill="#f8fafc">
    <!-- Foodtruck icon -->
    <path d="M120 200h272c13.3 0 24 10.7 24 24v96c0 13.3-10.7 24-24 24H120c-13.3 0-24-10.7-24-24v-96c0-13.3 10.7-24 24-24z"/>
    <circle cx="176" cy="368" r="32"/>
    <circle cx="336" cy="368" r="32"/>
    <path d="M136 200v-40c0-8.8 7.2-16 16-16h208c8.8 0 16 7.2 16 16v40"/>
    <!-- "L" letter -->
    <text x="256" y="280" font-family="Arial, sans-serif" font-size="120" font-weight="bold" text-anchor="middle" fill="#22d3ee">L</text>
  </g>
</svg>
